<svg xmlns="http://www.w3.org/2000/svg" version="1.1" xmlns:xlink="http://www.w3.org/1999/xlink" xmlns:svgjs="http://svgjs.com/svgjs" width="560" height="560" preserveAspectRatio="none" viewBox="0 0 560 560"><g mask="url(&quot;#SvgjsMask1265&quot;)" fill="none"><use xlink:href="#SvgjsG1275" transform="translate(0, 0)" fill="#0f457b"></use><use xlink:href="#SvgjsG1275" transform="translate(0, 480)" fill="#0f457b"></use><use xlink:href="#SvgjsG1275" transform="translate(480, 0)" fill="#0f457b"></use><use xlink:href="#SvgjsG1275" transform="translate(480, 480)" fill="#0f457b"></use></g><defs><mask id="SvgjsMask1265"><rect width="560" height="560" fill="#ffffff"></rect></mask><g id="SvgjsG1268"><path d="M9.992 5.121c0 1.164-0.945 2.107-2.11 2.107-1.163 0-2.106-0.943-2.106-2.107 0-1.164 0.944-2.107 2.107-2.107 1.165 0 2.11 0.943 2.111 2.107z"></path><path d="M7.885 0c0.935 0 2.466 0.393 3.32 1.326L10.056 3.532a2.735 2.735 0 0 0-2.171-1.066 2.734 2.734 0 0 0-2.152 1.044L4.561 1.375C5.548 0.389 6.91 0 7.885 0z m-0.332 2.113h0.655V1.568h0.546V0.912h-0.546v-0.547h-0.655v0.547h-0.546V1.568h0.546v0.545z m-2.44 8.903h0.54L4.883 13.658h6.023l-0.768-2.642h0.54l0.772 2.641h1.773L12.013 9.654c-0.189-0.661-1.018-1.824-2.448-1.859l-3.287-0.003c-1.462 0.007-2.308 1.193-2.5 1.863L2.545 13.658h1.798l0.77-2.643zM0 14.5h15.767V16H0z"></path></g><g id="SvgjsG1269"><path d="M1.21 12.396C0.087 12.396 0 11.186 0 11.186V3.6h14.879S16 3.548 16 4.58c0 1.085-0.969 1.026-0.969 1.026H11.059a1.374 1.374 0 0 0-0.316-0.077L7.494 5.118l-3.592-1.035a0.216 0.216 0 0 0-0.268 0.147c-0.033 0.115 0.032 0.24 0.147 0.274l3.664 1.056a0.978 0.978 0 0 1 0.588 0.47 0.972 0.972 0 0 1 0.084 0.746 0.975 0.975 0 0 1-0.47 0.589 0.976 0.976 0 0 1-0.743 0.086c-0.002 0-0.003 0-0.005 0l-1.542-0.447c-0.8-0.251-1.395 0.001-2.026 0.267-0.486 0.206-0.989 0.417-1.672 0.463a3.776 3.776 0 0 1-0.274 0.01 0.215 0.215 0 0 0-0.218 0.213c-0.002 0.12 0.098 0.224 0.219 0.224 0.916 0 1.554-0.27 2.117-0.508 0.602-0.254 1.078-0.456 1.729-0.251 0.002 0 0.136 0.04 0.324 0.093-0.432 0.199-0.755 0.608-0.819 1.113-0.073 0.579 0.215 1.122 0.687 1.402a1.286 1.286 0 0 0-0.556 0.905c-0.089 0.704 0.413 1.391 1.117 1.459H1.21z"></path><path d="M12.965 11.475h1.968v-0.495H12.965v0.495z m0.738-2.902v0.728h-0.738v0.495h0.738v0.72h0.494v-0.72h0.736v-0.495h-0.736v-0.728H13.702z m0.247 3.886c-1.207 0-1.795-0.985-1.795-1.861 0-1.288 1.795-4.137 1.795-4.137s1.795 2.85 1.795 4.138c0 0.877-0.587 1.861-1.795 1.86M11.542 7.062c-0.068 0.538-0.561 0.922-1.1 0.853l-2.382-0.3a1.404 1.404 0 0 0 0.48-0.718 1.407 1.407 0 0 0-0.222-1.233l2.37 0.299a0.985 0.985 0 0 1 0.854 1.099M10.39 9.341a0.98 0.98 0 0 1-0.373 0.654 0.977 0.977 0 0 1-0.726 0.199L6.026 9.782a0.984 0.984 0 0 1-0.853-1.099 0.976 0.976 0 0 1 0.373-0.654 0.976 0.976 0 0 1 0.727-0.2l3.264 0.413a0.985 0.985 0 0 1 0.853 1.099M8.868 11.44a0.853 0.853 0 0 1-0.952 0.738l-1.875-0.237a0.852 0.852 0 0 1-0.737-0.951 0.852 0.852 0 0 1 0.951-0.737l1.874 0.237a0.852 0.852 0 0 1 0.745 0.843c0 0.037-0.001 0.072-0.006 0.107"></path></g><g id="SvgjsG1266"><path d="M13.856 7.297c1.344 0 2.144 0.801 2.144 2.027v5.74c0 0.444-0.04 0.805-0.04 0.804H9.822V10.29h-0.25l-1.139 1.7c-0.186 0.253-0.562 0.376-0.863 0.375H4.896a0.804 0.804 0 0 1-0.805-0.804c0-0.443 0.36-0.793 0.805-0.793h2.432L9.016 8.216c0.405-0.617 1.155-0.911 1.832-0.911 0 1.795 0.448 2.554 1.256 2.554v2.983a0.64 0.64 0 0 0-0.387 0.588 0.632 0.632 0 0 0 0.634 0.635c0.353 0 0.636-0.291 0.636-0.644 0-0.264-0.16-0.49-0.387-0.588V9.85c0.808 0 1.256-0.759 1.256-2.554"></path><path d="M13.352 7.297c-0.014 1.84-0.332 2.082-1 2.082-0.667 0-0.986-0.242-1-2.082h2z m-1.012-4.144c1.014 0 1.836 0.822 1.836 1.837 0 1.013-0.822 1.836-1.837 1.835-1.014 0-1.837-0.822-1.837-1.836S11.325 3.152 12.339 3.152m-4.512 0.251c0.224 0 0.406-0.182 0.407-0.406s-0.182-0.406-0.407-0.407a0.406 0.406 0 0 0 0 0.814M4.922 1.163a0.579 0.579 0 0 0 0.579-0.579c0-0.32-0.259-0.58-0.579-0.58a0.58 0.58 0 0 0-0.58 0.58c0 0.32 0.259 0.579 0.58 0.579m-3.146 0.004c0.325 0 0.589-0.261 0.589-0.584 0-0.322-0.264-0.583-0.589-0.583C1.452 0 1.189 0.261 1.189 0.583c0 0.322 0.263 0.584 0.588 0.584"></path><path d="M7.276 6.914a0.24 0.24 0 0 0 0.241 0.238c0.131 0 0.237-0.107 0.236-0.238v-1.427h0.187v1.426c0 0.131 0.107 0.238 0.238 0.239s0.24-0.107 0.24-0.239V4.246h0.184v0.904a0.178 0.178 0 0 0 0.178 0.178 0.176 0.176 0 0 0 0.176-0.178v-1.027c0-0.288-0.253-0.522-0.54-0.522 0 0-1.103 0.001-1.108 0.002l-0.357-0.035-0.459-1.598c-0.185-0.645-0.725-0.624-0.724-0.625h-1.487s-0.54-0.021-0.725 0.625l-0.24 0.837-0.24-0.837c-0.185-0.645-0.725-0.624-0.725-0.624h-1.15s-0.54-0.021-0.725 0.624L0.013 3.584c-0.045 0.15 0.029 0.291 0.161 0.329 0.132 0.037 0.276-0.054 0.311-0.174l0.45-1.573h0.22l-0.658 2.723H1.078v1.934a0.288 0.288 0 0 0 0.288 0.289c0.16 0 0.29-0.129 0.29-0.289v-1.935h0.245v1.935a0.289 0.289 0 0 0 0.578 0v-1.935h0.572L2.398 2.166h0.22l0.45 1.573c0.03 0.104 0.126 0.189 0.24 0.179 0.113 0.01 0.229-0.075 0.258-0.179l0.45-1.573h0.203v4.601a0.341 0.341 0 0 0 0.342 0.339c0.187 0 0.34-0.152 0.34-0.339V4.149h0.251v2.618a0.341 0.341 0 0 0 0.682 0V2.166h0.22l0.418 1.52c0.026 0.092 0.121 0.18 0.222 0.211l0.584 0.163V6.914z"></path></g><g id="SvgjsG1270"><path d="M8.221 6.211a0.931 0.931 0 0 1 1.171 0.604c0.156 0.489-0.114 1.013-0.604 1.171l-2.532 0.809a0.932 0.932 0 0 1-0.858-0.153l-1.047-0.819L6.625 16H0V5.61a1.111 1.111 0 0 1 1.111-1.111h1.657c0.236 0 0.454 0.075 0.633 0.215L6.158 6.87l2.063-0.659zM4.174 9.344h-1.005v-1.006h-1.199v1.006H0.969v1.203h1.001v1.001h1.199V10.547h1.005V9.344zM2.159 3.999c1.104 0 1.999-0.894 1.999-2C4.158 0.896 3.262 0 2.158 0S0.159 0.896 0.159 1.999c0 1.106 0.896 2 2 2m11.766 0.007c1.105 0 2.002-0.896 2.003-2.001C15.928 0.898 15.03 0 13.925 0c-1.106 0-2.003 0.898-2.002 2.005 0 1.105 0.896 2.002 2.002 2.001"></path><path d="M13.32 4.544c-0.819 0-1.191 0.28-1.502 0.766l-0.202 0.387-1.169-0.342 0.049-0.319-2.795-0.626-0.077 0.349-0.523-0.116 0.078-0.35-0.209-0.047-0.24 1.071 0.209 0.047 0.08-0.35 0.522 0.117-0.078 0.35 2.795 0.626 0.091-0.328 1.132 0.183-2.918 5.609a0.912 0.912 0 0 0 0.408 1.224c0.451 0.227 0.999 0.043 1.227-0.407l2.434-4.724h0.399v8.335h2.869V4.544H13.32z"></path></g><g id="SvgjsG1272"><path d="M2.325 8.986a1.069 1.069 0 0 1 1.071-1.07 1.07 1.07 0 0 1 0 2.14 1.07 1.07 0 0 1-1.071-1.07m10.341-0.655c0.471 0 0.851 0.369 0.856 0.837l0.001 2.257H4.93V8.333l7.737-0.002zM3.941 11.424a0.527 0.527 0 0 0 0.527-0.527 0.527 0.527 0 0 0-0.527-0.527H2.418a0.526 0.526 0 0 0-0.526 0.527 0.526 0.526 0 0 0 0.526 0.526h1.523z"></path><path d="M14.033 13.645V16h1.394V8.531a0.696 0.696 0 0 0-0.695-0.696 0.698 0.698 0 0 0-0.699 0.696v3.428H1.512V7.123c0-0.384-0.336-0.697-0.721-0.698C0.406 6.426 0.104 6.738 0.104 7.123V16h1.407V13.645h12.522zM9.614 0c0.446 0 1.177 0.187 1.583 0.632L10.65 1.685a1.305 1.305 0 0 0-1.036-0.509 1.303 1.303 0 0 0-1.027 0.499l-0.559-1.019C8.499 0.185 9.149 0 9.614 0M9.456 1.06h0.312V0.748h0.313V0.436h-0.313V0.123H9.456v0.313h-0.313v0.312H9.456v0.312z"></path><path d="M10.617 2.552a1.006 1.006 0 0 1-1.006 1.006 1.005 1.005 0 0 1-1.004-1.006c0-0.556 0.45-1.005 1.004-1.005s1.006 0.45 1.006 1.005M8.645 3.844c-0.703 0.004-1.11 0.574-1.202 0.897l-0.857 2.81h0.867l0.631-2.157h0.449L7.904 7.551h3.41L10.69 5.395h0.448l0.649 2.157h0.854L11.781 4.741c-0.091-0.318-0.49-0.878-1.178-0.895l-1.958-0.002z m-6.408 0.647C1.003 4.491 0 3.487 0 2.253 0 1.019 1.003 0.015 2.237 0.015S4.475 1.019 4.475 2.253c0 1.235-1.005 2.238-2.238 2.238m0-0.554c0.928 0 1.685-0.755 1.685-1.685 0-0.928-0.757-1.684-1.685-1.684-0.928 0-1.683 0.756-1.683 1.684 0 0.93 0.755 1.684 1.683 1.685"></path><path d="M2.248 2.548a0.166 0.166 0 0 1-0.16-0.012 0.168 0.168 0 0 1-0.076-0.116L2.01 1.12a0.168 0.168 0 0 1 0.337 0v1.009l0.863-0.406a0.167 0.167 0 0 1 0.224 0.079c0.04 0.085 0.003 0.185-0.08 0.225l-1.105 0.521z"></path></g><g id="SvgjsG1273"><path d="M8.655 0C5.901 0 3.36 2.069 2.833 4.347 2.715 4.854 2.582 6.177 2.582 6.177L1.318 9.37A0.469 0.469 0 0 0 1.28 9.561a0.488 0.488 0 0 0 0.489 0.488h0.814v1.697c0 1.324 1.07 2.396 2.392 2.396h0.952V16h3.535v-0.829h1.44V16h1.503V10.847c1.413-1.111 2.322-2.838 2.322-4.774C14.726 2.718 12.01 0 8.655 0zM4.077 7.387a0.682 0.682 0 0 1-0.682-0.682c0-0.375 0.306-0.68 0.682-0.68a0.681 0.681 0 0 1 0.679 0.68c0 0.377-0.306 0.682-0.68 0.682z m5.385 4.46h1.44v0.779h-1.44v-0.779z m0-1.108h1.44v0.778h-1.44V10.739z m0 2.215h1.44v0.78h-1.44v-0.78z m0 1.109h1.44v0.78h-1.44V14.062z m0-4.431h1.448c-0.003 0.057-0.009 0.113-0.009 0.172v0.607h-1.44V9.632z m3.986-4.488a1.557 1.557 0 0 1-0.427 1.071c-0.045 0.592-0.42 1.091-0.942 1.316v0.005c-0.637 0.372-1.019 1.005-1.135 1.766H10.354v-1.765c0.004-0.55 0.177-0.902 0.539-1.119a1.907 1.907 0 0 0 0.356-0.26 1.229 1.229 0 0 1 0.659 0.556c0.032 0.053 0.088 0.083 0.144 0.082 0.027 0 0.055-0.007 0.08-0.021a0.163 0.163 0 0 0 0.064-0.224h-0.001a1.563 1.563 0 0 0-0.721-0.657c0.15-0.231 0.234-0.506 0.23-0.837 0-0.002 0.002-0.003 0.003-0.006 0-0.149-0.022-0.294-0.062-0.431a1.572 1.572 0 0 0 0.871-0.486 0.164 0.164 0 0 0-0.011-0.234 0.164 0.164 0 0 0-0.232 0.011 1.248 1.248 0 0 1-0.755 0.396c-0.24-0.444-0.686-0.76-1.209-0.818a1.235 1.235 0 0 1 0.353-0.724 0.166 0.166 0 0 0 0-0.233 0.166 0.166 0 0 0-0.234 0 1.572 1.572 0 0 0-0.45 0.937 1.244 1.244 0 0 1-1.088-1.234c0-0.09-0.075-0.165-0.163-0.165-0.093 0-0.166 0.075-0.167 0.165 0 0.107 0.01 0.21 0.031 0.31a1.24 1.24 0 0 1-1.235 0.229s-0.002 0-0.003-0.001a1.225 1.225 0 0 1-0.453-0.289c-0.063-0.064-0.168-0.064-0.233 0-0.065 0.064-0.065 0.168 0 0.233a1.59 1.59 0 0 0 0.452 0.316c-0.033 0.411-0.271 0.764-0.605 0.963a1.578 1.578 0 0 0-0.84-0.639 0.166 0.166 0 0 0-0.209 0.107c-0.024 0.087 0.02 0.179 0.108 0.207a1.247 1.247 0 0 1 0.63 0.455 1.221 1.221 0 0 1-0.32 0.042h-0.02a1.568 1.568 0 0 0-1.096 0.444 0.161 0.161 0 0 0-0.003 0.233 0.162 0.162 0 0 0 0.231 0.003 1.236 1.236 0 0 1 0.868-0.35h0.019c0.794 0 1.453-0.591 1.557-1.358 0.113 0.024 0.226 0.038 0.34 0.038A1.574 1.574 0 0 0 8.699 2.88a1.558 1.558 0 0 0 0.45 0.583 1.556 1.556 0 0 0-0.341 0.82 1.622 1.622 0 0 0-0.256-0.021 1.557 1.557 0 0 0-0.736 0.185c-0.08 0.043-0.111 0.142-0.068 0.224 0.03 0.055 0.088 0.087 0.147 0.087a0.144 0.144 0 0 0 0.075-0.02 1.25 1.25 0 0 1 0.583-0.146c0.087 0 0.173 0.01 0.256 0.027a1.576 1.576 0 0 0 0.428 0.92c0.033 0.034 0.076 0.051 0.118 0.051 0.04 0 0.082-0.015 0.115-0.046 0.067-0.063 0.069-0.167 0.005-0.232h-0.001a1.253 1.253 0 0 1-0.345-0.829c0-0.004 0.001-0.008 0-0.013v-0.018a1.237 1.237 0 0 1 0.299-0.81 1.57 1.57 0 0 0 0.701 0.166s0.001 0 0.003 0h0.003a1.244 1.244 0 0 1 1.241 1.24 1.566 1.566 0 0 0-0.401-0.052c-0.196 0-0.395 0.036-0.587 0.114a0.164 0.164 0 0 0-0.091 0.215c0.035 0.084 0.129 0.125 0.214 0.09a1.247 1.247 0 0 1 0.464-0.091c0.124 0 0.248 0.019 0.363 0.055a0.953 0.953 0 0 1-0.242 0.464 0.14 0.14 0 0 0-0.025 0.029c-0.094 0.092-0.207 0.177-0.346 0.262-0.477 0.278-0.706 0.784-0.701 1.403V9.301h-0.563V7.624c0-0.616-0.386-1.201-0.873-1.409-0.232-0.09-0.474-0.241-0.65-0.438a1.558 1.558 0 0 1-0.878 0.271 1.555 1.555 0 0 1-0.877-0.269 1.581 1.581 0 0 1-0.87 0.26c-0.883 0-1.596-0.715-1.597-1.597 0-0.659 0.398-1.224 0.969-1.467 0.154-0.703 0.777-1.229 1.527-1.23 0.04 0 0.076 0.003 0.113 0.006a1.567 1.567 0 0 1 1.295-0.684c0.266 0 0.516 0.066 0.736 0.185a1.558 1.558 0 0 1 1.925 0.158 1.553 1.553 0 0 1 0.365-0.044c0.633 0 1.18 0.381 1.424 0.926 0.642 0.195 1.11 0.79 1.11 1.496a1.576 1.576 0 0 1-0.054 0.408 1.561 1.561 0 0 1 0.321 0.948z"></path></g><g id="SvgjsG1271"><path d="M7.357 2.676c0.737 0.058 1.384-0.493 1.442-1.229 0.057-0.738-0.495-1.384-1.231-1.443A1.34 1.34 0 0 0 7.357 2.677m0.367 2.686c0.418 0.078 0.732 0.448 0.733 0.89a0.906 0.906 0 0 1-0.906 0.906H4.615a0.575 0.575 0 0 1-0.575-0.575c0-0.077 0.016-0.151 0.043-0.218L4.4 5.624l3.535-2.532h-1.684c-0.647-0.018-1.101 0.207-1.363 0.717-0.177 0.343-1.115 2.439-1.115 2.439a0.906 0.906 0 0 0 0.842 1.242h1.147l-0.338 2.224L3.644 14.857a0.867 0.867 0 0 0 0.55 1.094c0.453 0.151 0.944-0.097 1.094-0.551L7.334 9.598c0.399 0.649 1.194 1.811 1.329 2.031 0.031 0.365 0.317 3.582 0.317 3.582a0.867 0.867 0 0 0 0.939 0.786c0.476-0.041 0.828-0.464 0.786-0.939L10.368 11.271a0.854 0.854 0 0 0-0.126-0.378L8.771 8.508l0.234-2.992s0.348 1.184 0.375 1.27c0.075 0.244 0.244 0.42 0.416 0.56 0.101 0.08 1.818 1.25 1.818 1.249 0.096 0.044 0.174 0.083 0.277 0.09a0.604 0.604 0 0 0 0.65-0.554 0.608 0.608 0 0 0-0.236-0.53s-1.711-1.175-1.781-1.226c-0.057-0.043-0.102-0.118-0.113-0.157L9.733 3.779c-0.11-0.369-0.482-0.687-0.952-0.687h-0.202l-0.855 2.271z"></path><path d="M7.551 6.828a0.575 0.575 0 0 0 0.575-0.576c0-0.296-0.226-0.538-0.514-0.568l-0.42 1.147 0.359-0.003z"></path></g><g id="SvgjsG1274"><path d="M0.608 0.571a0.105 0.105 0 0 1 0.042-0.142L1.412 0.013a0.104 0.104 0 0 1 0.143 0.042l0.305 0.558c1.157-0.347 2.439 0.146 3.041 1.249l-1.478 0.807c0.244 0.447 0.079 1.009-0.369 1.254a0.926 0.926 0 0 1-1.255-0.368L0.32 4.361C-0.283 3.259-0.006 1.915 0.914 1.13L0.608 0.571z m10.416 10.055H16V15.77H11.024z m-0.57 2.571H6.435c-0.7 0-1.27-0.569-1.27-1.269 0-0.702 0.57-1.27 1.27-1.27h4.019v2.539z m-8.664 1.03a0.515 0.515 0 0 1 0.514-0.514h8.15V15.77h-8.664v-1.543z"></path><path d="M1.81 11.665a1.535 1.532 0 1 0 3.07 0 1.535 1.532 0 1 0-3.07 0"></path><path d="M13.27 7.373l-0.863-2.458c-0.167-0.463-0.489-0.825-1.397-0.825H7.024c-0.908 0-1.23 0.362-1.397 0.825l-0.863 2.458c-0.064 0.159-0.098 0.516 0.254 0.754l2.03 1.337a0.642 0.642 0 1 0 0.708-1.072l-0.976-0.643-0.635-0.419 0.453-1.251h0.628l-0.368 1.015 1.223 0.806a1.222 1.222 0 0 1 0.529 0.781 1.222 1.222 0 0 1-0.178 0.927 1.24 1.24 0 0 1-0.261 0.282H9.864a1.26 1.26 0 0 1-0.261-0.282 1.226 1.226 0 0 1-0.179-0.927 1.225 1.225 0 0 1 0.529-0.781l1.224-0.806-0.369-1.014h0.628l0.454 1.25-0.635 0.42-0.976 0.642c-0.296 0.195-0.379 0.595-0.183 0.891s0.595 0.378 0.892 0.182l2.029-1.337c0.351-0.239 0.318-0.596 0.254-0.755zM9.414 1.684a0.607 0.607 0 0 1-0.551 0.352 0.608 0.608 0 0 1-0.552-0.352h-1.112a1.688 1.688 0 0 0-0.029 0.3c0 0.937 0.761 1.696 1.699 1.696 0.938 0 1.699-0.759 1.699-1.696 0-0.103-0.011-0.203-0.029-0.3h-1.125zM8.273 1.283a0.608 0.608 0 0 1 0.59-0.459A0.607 0.607 0 0 1 9.451 1.283h0.963c-0.267-0.587-0.858-0.996-1.545-0.996-0.687 0-1.278 0.409-1.546 0.996h0.95z"></path></g><g id="SvgjsG1267"><path d="M12.346 8.402l-4.199-0.691 0.602-0.429 1.009 0.14 1.007-0.14zM9.758 0.467c0.842 0 1.524 0.682 1.524 1.525 0 0.842-0.537 1.524-1.524 1.524-0.842 0-1.525-0.682-1.525-1.524 0-0.842 0.683-1.524 1.525-1.525z m0.379 11.017v3.684A0.832 0.832 0 0 0 10.97 16a0.832 0.832 0 0 0 0.832-0.832V11.484c0-0.459-0.372-0.832-0.832-0.832a0.833 0.833 0 0 0-0.833 0.832z m5.099 2.104a0.484 0.484 0 0 1-0.483 0.483h-2.552v-2.413h1.104V9.248a0.483 0.483 0 0 1 0.482-0.482h0.966a0.484 0.484 0 0 1 0.483 0.482v4.34z m-5.497 0.483H4.784a0.483 0.483 0 0 1-0.482-0.483V9.247c0-0.266 0.216-0.482 0.482-0.482h0.966a0.483 0.483 0 0 1 0.483 0.482v2.411h3.506v2.413zM7.13 8.866a0.833 0.833 0 0 0 0.686 0.956l3.635 0.599a0.833 0.833 0 0 0 0.956-0.686c0.075-0.453-0.232-0.882-0.686-0.956L8.086 8.18a0.833 0.833 0 0 0-0.956 0.685z m-4.099-4.563C1.845 4.303 0.88 3.338 0.88 2.152S1.845 0 3.031 0s2.152 0.965 2.152 2.152-0.966 2.151-2.152 2.151z m0-0.533c0.892 0 1.62-0.726 1.619-1.619 0-0.892-0.727-1.619-1.619-1.619-0.893 0-1.618 0.727-1.619 1.619 0 0.893 0.725 1.619 1.619 1.619z"></path><path d="M3.042 2.436a0.16 0.16 0 0 1-0.155-0.012 0.16 0.16 0 0 1-0.072-0.111L2.813 1.062a0.162 0.162 0 0 1 0.323 0v0.97l0.83-0.39a0.162 0.162 0 1 1 0.138 0.292l-1.062 0.502z m6.716 2.292l1.976-0.321v1.389l0.976 0.734c0.094 0.094 0.056 0.202 0.033 0.233-0.056 0.074-0.16 0.088-0.233 0.033l-1.231-0.931a0.565 0.565 0 0 0-0.652 0.924l2.103 1.478c0.098 0.069 0.237 0.116 0.376 0.116 0.118 0 0.257-0.049 0.361-0.123 0.221-0.157 0.302-0.435 0.226-0.691L12.912 5.26c-0.208-0.573-0.735-1.249-1.525-1.249H8.128c-0.79 0-1.316 0.675-1.525 1.249l-0.782 2.309c-0.075 0.256 0.007 0.534 0.228 0.691 0.103 0.074 0.242 0.123 0.36 0.123 0.139 0 0.278-0.046 0.376-0.116l2.103-1.478a0.565 0.565 0 0 0-0.652-0.924l-1.232 0.931a0.167 0.167 0 0 1-0.232-0.033c-0.022-0.03-0.061-0.138 0.033-0.233 0 0 0.661-0.497 0.976-0.734v-1.389l1.977 0.322z"></path></g><g id="SvgjsG1275"><use xlink:href="#SvgjsG1266" transform="translate(0, 0) scale(2)" fill="#0f457b"></use><use xlink:href="#SvgjsG1267" transform="translate(0, 48) scale(2)" fill="#0f457b"></use><use xlink:href="#SvgjsG1268" transform="translate(0, 96) scale(2)" fill="#0f457b"></use><use xlink:href="#SvgjsG1269" transform="translate(0, 144) scale(2)" fill="#0f457b"></use><use xlink:href="#SvgjsG1268" transform="translate(0, 192) scale(2)" fill="#0f457b"></use><use xlink:href="#SvgjsG1270" transform="translate(0, 240) scale(2)" fill="#0f457b"></use><use xlink:href="#SvgjsG1271" transform="translate(0, 288) scale(2)" fill="#0f457b"></use><use xlink:href="#SvgjsG1266" transform="translate(0, 336) scale(2)" fill="#0f457b"></use><use xlink:href="#SvgjsG1272" transform="translate(0, 384) scale(2)" fill="#0f457b"></use><use xlink:href="#SvgjsG1270" transform="translate(0, 432) scale(2)" fill="#0f457b"></use><use xlink:href="#SvgjsG1273" transform="translate(48, 0) scale(2)" fill="#0f457b"></use><use xlink:href="#SvgjsG1268" transform="translate(48, 48) scale(2)" fill="#0f457b"></use><use xlink:href="#SvgjsG1273" transform="translate(48, 96) scale(2)" fill="#0f457b"></use><use xlink:href="#SvgjsG1272" transform="translate(48, 144) scale(2)" fill="#0f457b"></use><use xlink:href="#SvgjsG1266" transform="translate(48, 192) scale(2)" fill="#0f457b"></use><use xlink:href="#SvgjsG1268" transform="translate(48, 240) scale(2)" fill="#0f457b"></use><use xlink:href="#SvgjsG1273" transform="translate(48, 288) scale(2)" fill="#0f457b"></use><use xlink:href="#SvgjsG1274" transform="translate(48, 336) scale(2)" fill="#0f457b"></use><use xlink:href="#SvgjsG1266" transform="translate(48, 384) scale(2)" fill="#0f457b"></use><use xlink:href="#SvgjsG1273" transform="translate(48, 432) scale(2)" fill="#0f457b"></use><use xlink:href="#SvgjsG1273" transform="translate(96, 0) scale(2)" fill="#0f457b"></use><use xlink:href="#SvgjsG1274" transform="translate(96, 48) scale(2)" fill="#0f457b"></use><use xlink:href="#SvgjsG1267" transform="translate(96, 96) scale(2)" fill="#0f457b"></use><use xlink:href="#SvgjsG1272" transform="translate(96, 144) scale(2)" fill="#0f457b"></use><use xlink:href="#SvgjsG1274" transform="translate(96, 192) scale(2)" fill="#0f457b"></use><use xlink:href="#SvgjsG1272" transform="translate(96, 240) scale(2)" fill="#0f457b"></use><use xlink:href="#SvgjsG1270" transform="translate(96, 288) scale(2)" fill="#0f457b"></use><use xlink:href="#SvgjsG1269" transform="translate(96, 336) scale(2)" fill="#0f457b"></use><use xlink:href="#SvgjsG1274" transform="translate(96, 384) scale(2)" fill="#0f457b"></use><use xlink:href="#SvgjsG1274" transform="translate(96, 432) scale(2)" fill="#0f457b"></use><use xlink:href="#SvgjsG1268" transform="translate(144, 0) scale(2)" fill="#0f457b"></use><use xlink:href="#SvgjsG1271" transform="translate(144, 48) scale(2)" fill="#0f457b"></use><use xlink:href="#SvgjsG1268" transform="translate(144, 96) scale(2)" fill="#0f457b"></use><use xlink:href="#SvgjsG1268" transform="translate(144, 144) scale(2)" fill="#0f457b"></use><use xlink:href="#SvgjsG1268" transform="translate(144, 192) scale(2)" fill="#0f457b"></use><use xlink:href="#SvgjsG1269" transform="translate(144, 240) scale(2)" fill="#0f457b"></use><use xlink:href="#SvgjsG1274" transform="translate(144, 288) scale(2)" fill="#0f457b"></use><use xlink:href="#SvgjsG1267" transform="translate(144, 336) scale(2)" fill="#0f457b"></use><use xlink:href="#SvgjsG1267" transform="translate(144, 384) scale(2)" fill="#0f457b"></use><use xlink:href="#SvgjsG1266" transform="translate(144, 432) scale(2)" fill="#0f457b"></use><use xlink:href="#SvgjsG1273" transform="translate(192, 0) scale(2)" fill="#0f457b"></use><use xlink:href="#SvgjsG1270" transform="translate(192, 48) scale(2)" fill="#0f457b"></use><use xlink:href="#SvgjsG1266" transform="translate(192, 96) scale(2)" fill="#0f457b"></use><use xlink:href="#SvgjsG1269" transform="translate(192, 144) scale(2)" fill="#0f457b"></use><use xlink:href="#SvgjsG1273" transform="translate(192, 192) scale(2)" fill="#0f457b"></use><use xlink:href="#SvgjsG1272" transform="translate(192, 240) scale(2)" fill="#0f457b"></use><use xlink:href="#SvgjsG1267" transform="translate(192, 288) scale(2)" fill="#0f457b"></use><use xlink:href="#SvgjsG1274" transform="translate(192, 336) scale(2)" fill="#0f457b"></use><use xlink:href="#SvgjsG1269" transform="translate(192, 384) scale(2)" fill="#0f457b"></use><use xlink:href="#SvgjsG1274" transform="translate(192, 432) scale(2)" fill="#0f457b"></use><use xlink:href="#SvgjsG1274" transform="translate(240, 0) scale(2)" fill="#0f457b"></use><use xlink:href="#SvgjsG1270" transform="translate(240, 48) scale(2)" fill="#0f457b"></use><use xlink:href="#SvgjsG1271" transform="translate(240, 96) scale(2)" fill="#0f457b"></use><use xlink:href="#SvgjsG1267" transform="translate(240, 144) scale(2)" fill="#0f457b"></use><use xlink:href="#SvgjsG1268" transform="translate(240, 192) scale(2)" fill="#0f457b"></use><use xlink:href="#SvgjsG1270" transform="translate(240, 240) scale(2)" fill="#0f457b"></use><use xlink:href="#SvgjsG1274" transform="translate(240, 288) scale(2)" fill="#0f457b"></use><use xlink:href="#SvgjsG1267" transform="translate(240, 336) scale(2)" fill="#0f457b"></use><use xlink:href="#SvgjsG1273" transform="translate(240, 384) scale(2)" fill="#0f457b"></use><use xlink:href="#SvgjsG1274" transform="translate(240, 432) scale(2)" fill="#0f457b"></use><use xlink:href="#SvgjsG1266" transform="translate(288, 0) scale(2)" fill="#0f457b"></use><use xlink:href="#SvgjsG1272" transform="translate(288, 48) scale(2)" fill="#0f457b"></use><use xlink:href="#SvgjsG1271" transform="translate(288, 96) scale(2)" fill="#0f457b"></use><use xlink:href="#SvgjsG1269" transform="translate(288, 144) scale(2)" fill="#0f457b"></use><use xlink:href="#SvgjsG1273" transform="translate(288, 192) scale(2)" fill="#0f457b"></use><use xlink:href="#SvgjsG1266" transform="translate(288, 240) scale(2)" fill="#0f457b"></use><use xlink:href="#SvgjsG1274" transform="translate(288, 288) scale(2)" fill="#0f457b"></use><use xlink:href="#SvgjsG1271" transform="translate(288, 336) scale(2)" fill="#0f457b"></use><use xlink:href="#SvgjsG1272" transform="translate(288, 384) scale(2)" fill="#0f457b"></use><use xlink:href="#SvgjsG1269" transform="translate(288, 432) scale(2)" fill="#0f457b"></use><use xlink:href="#SvgjsG1271" transform="translate(336, 0) scale(2)" fill="#0f457b"></use><use xlink:href="#SvgjsG1269" transform="translate(336, 48) scale(2)" fill="#0f457b"></use><use xlink:href="#SvgjsG1273" transform="translate(336, 96) scale(2)" fill="#0f457b"></use><use xlink:href="#SvgjsG1266" transform="translate(336, 144) scale(2)" fill="#0f457b"></use><use xlink:href="#SvgjsG1268" transform="translate(336, 192) scale(2)" fill="#0f457b"></use><use xlink:href="#SvgjsG1266" transform="translate(336, 240) scale(2)" fill="#0f457b"></use><use xlink:href="#SvgjsG1269" transform="translate(336, 288) scale(2)" fill="#0f457b"></use><use xlink:href="#SvgjsG1274" transform="translate(336, 336) scale(2)" fill="#0f457b"></use><use xlink:href="#SvgjsG1270" transform="translate(336, 384) scale(2)" fill="#0f457b"></use><use xlink:href="#SvgjsG1272" transform="translate(336, 432) scale(2)" fill="#0f457b"></use><use xlink:href="#SvgjsG1272" transform="translate(384, 0) scale(2)" fill="#0f457b"></use><use xlink:href="#SvgjsG1274" transform="translate(384, 48) scale(2)" fill="#0f457b"></use><use xlink:href="#SvgjsG1270" transform="translate(384, 96) scale(2)" fill="#0f457b"></use><use xlink:href="#SvgjsG1268" transform="translate(384, 144) scale(2)" fill="#0f457b"></use><use xlink:href="#SvgjsG1273" transform="translate(384, 192) scale(2)" fill="#0f457b"></use><use xlink:href="#SvgjsG1271" transform="translate(384, 240) scale(2)" fill="#0f457b"></use><use xlink:href="#SvgjsG1269" transform="translate(384, 288) scale(2)" fill="#0f457b"></use><use xlink:href="#SvgjsG1271" transform="translate(384, 336) scale(2)" fill="#0f457b"></use><use xlink:href="#SvgjsG1274" transform="translate(384, 384) scale(2)" fill="#0f457b"></use><use xlink:href="#SvgjsG1270" transform="translate(384, 432) scale(2)" fill="#0f457b"></use><use xlink:href="#SvgjsG1273" transform="translate(432, 0) scale(2)" fill="#0f457b"></use><use xlink:href="#SvgjsG1271" transform="translate(432, 48) scale(2)" fill="#0f457b"></use><use xlink:href="#SvgjsG1269" transform="translate(432, 96) scale(2)" fill="#0f457b"></use><use xlink:href="#SvgjsG1273" transform="translate(432, 144) scale(2)" fill="#0f457b"></use><use xlink:href="#SvgjsG1273" transform="translate(432, 192) scale(2)" fill="#0f457b"></use><use xlink:href="#SvgjsG1274" transform="translate(432, 240) scale(2)" fill="#0f457b"></use><use xlink:href="#SvgjsG1269" transform="translate(432, 288) scale(2)" fill="#0f457b"></use><use xlink:href="#SvgjsG1274" transform="translate(432, 336) scale(2)" fill="#0f457b"></use><use xlink:href="#SvgjsG1272" transform="translate(432, 384) scale(2)" fill="#0f457b"></use><use xlink:href="#SvgjsG1267" transform="translate(432, 432) scale(2)" fill="#0f457b"></use></g></defs></svg>