<?xml version="1.0" encoding="UTF-8"?>
<!DOCTYPE svg PUBLIC "-//W3C//DTD SVG 1.1//EN" "http://www.w3.org/Graphics/SVG/1.1/DTD/svg11.dtd">
<!-- Creator: CorelDRAW -->
<svg xmlns="http://www.w3.org/2000/svg" xml:space="preserve" width="2048px" height="2048px" style="shape-rendering:geometricPrecision; text-rendering:geometricPrecision; image-rendering:optimizeQuality; fill-rule:evenodd; clip-rule:evenodd"
viewBox="0 0 2048 2048"
 xmlns:xlink="http://www.w3.org/1999/xlink">
 <defs>
  <style type="text/css">
   <![CDATA[
    .fil1 {fill:none}
    .fil0 {fill:#212121;fill-rule:nonzero}
   ]]>
  </style>
 </defs>
 <g id="Layer_x0020_1">
  <metadata id="CorelCorpID_0Corel-Layer"/>
  <path class="fil0" d="M498.972 597.116l1050.08 0c17.6728,0 32.0008,14.328 32.0008,32.0008 0,1.90984 -0.167717,3.77953 -0.487796,5.59725l-120.927 1128.66 -31.7504 -3.37559 31.8177 3.40866c-1.76575,16.4941 -15.7736,28.7126 -32.0185,28.5921l-807.573 0c-17.2358,0 -31.2874,-13.6288 -31.9725,-30.6957l-120.94 -1128.79 -0.0696851 0.00708662c-1.8815,-17.5713 10.8378,-33.3449 28.4091,-35.2264 1.15276,-0.124016 2.29843,-0.183071 3.43229,-0.183071zm1014.54 64.0016l-979.022 0 114.307 1066.88 750.408 0 114.307 -1066.88z"/>
  <path class="fil0" d="M1173.77 424.356c-2.00079,17.5347 10.591,33.3744 28.1256,35.3752 17.5347,2.00079 33.3744,-10.591 35.3752,-28.1256 0.311811,-2.66575 0.570473,-5.68347 0.770079,-9.06261 0.223229,-3.81378 0.340158,-6.88465 0.340158,-9.15827l0 -0.00236221c0,-43.3134 -17.6977,-82.6678 -46.2071,-111.176 -28.5095,-28.5095 -67.8638,-46.2071 -111.177,-46.2071l-113.986 0c-43.3134,0 -82.6678,17.6977 -111.177,46.2071 -28.5095,28.5083 -46.2071,67.8627 -46.2071,111.176l0 0.00236221c0,2.27362 0.116929,5.34449 0.340158,9.15827 0.199606,3.37914 0.458268,6.39686 0.770079,9.06261 2.00079,17.5347 17.8406,30.1264 35.3752,28.1256 17.5347,-2.00079 30.1264,-17.8406 28.1256,-35.3752 -0.253937,-2.16969 -0.429922,-4.03229 -0.519685,-5.56418 -0.0590552,-1.00512 -0.0897638,-2.79213 -0.0897638,-5.40709l0 -0.00236221c0,-25.6465 10.5165,-48.9874 27.4559,-65.9256 16.9394,-16.9394 40.2792,-27.4559 65.9268,-27.4559l113.986 0c25.6477,0 48.9874,10.5165 65.9268,27.4559 16.9394,16.9382 27.4559,40.2792 27.4559,65.9256l0 0.00236221c0,2.61496 -0.0307087,4.40197 -0.0897638,5.40709 -0.0897638,1.53189 -0.265748,3.39449 -0.519685,5.56418z"/>
  <path class="fil0" d="M771.011 917.357c-1.65591,-17.5347 -17.2158,-30.4063 -34.7504,-28.7504 -17.5347,1.65591 -30.4063,17.2158 -28.7504,34.7504l62.602 646.902c1.65591,17.5347 17.2158,30.4063 34.7504,28.7504 17.5347,-1.65591 30.4063,-17.2158 28.7504,-34.7504l-62.602 -646.902z"/>
  <path class="fil0" d="M1340.49 923.357c1.65591,-17.5347 -11.2158,-33.0945 -28.7504,-34.7504 -17.5347,-1.65591 -33.0945,11.2158 -34.7504,28.7504l-62.6008 646.902c-1.65591,17.5347 11.2158,33.0945 28.7504,34.7504 17.5347,1.65591 33.0945,-11.2158 34.7504,-28.7504l62.6008 -646.902z"/>
  <path class="fil0" d="M1056 903.519c0,-17.6728 -14.328,-32.0008 -32.0008,-32.0008 -17.6728,0 -32.0008,14.328 -32.0008,32.0008l0 663.74c0,17.6728 14.328,32.0008 32.0008,32.0008 17.6728,0 32.0008,-14.328 32.0008,-32.0008l0 -663.74z"/>
  <path class="fil0" d="M456.031 597.116l1135.94 0 53.7319 -127.154 -1243.4 0 53.7307 127.154zm1157.02 64.0016l-1177.42 0c-12.7193,0.26811 -24.9083,-7.1126 -30.1618,-19.5449l29.4768 -12.4559 -29.3752 12.3756 -79.6442 -188.477c-2.39646,-4.48701 -3.75709,-9.61182 -3.75709,-15.0543 0,-17.6728 14.328,-32.0008 32.0008,-32.0008l1339.05 0c4.35118,-0.0850394 8.79095,0.720473 13.0583,2.52402 16.2791,6.87875 23.8996,25.6536 17.0209,41.9327l-0.114567 -0.0484252 -79.6477 188.484c-4.11969,12.913 -16.213,22.265 -30.4914,22.265z"/>
 </g>
 <rect class="fil1" width="2048" height="2048"/>
</svg>
